<svg xmlns="http://www.w3.org/2000/svg" xmlns:xlink="http://www.w3.org/1999/xlink" fill="none" version="1.1" width="73" height="73" viewBox="0 0 73 73"><defs><clipPath id="master_svg0_17_49"><rect x="0" y="0" width="73" height="73" rx="0"/></clipPath><mask id="master_svg1_17_55"><g transform="matrix(1,0,0,-1,0,119.92867279052734)"><path d="M35.68395574645996,77.57033639526367L21.76051074645996,61.54035639526367C21.22995474645996,60.92897839526367,21.656224746459962,59.96433639526367,22.460526746459962,59.96433639526367L50.539455746459964,59.96433639526367C51.34375574645996,59.96433639526367,51.77135574645996,60.92897839526367,51.23945574645996,61.54035639526367L37.31475574645996,77.57033639526367C37.09835574645996,77.81933639526368,36.79855574645996,77.94453639526367,36.49995574645996,77.94453639526367C36.20015574645996,77.94453639526367,35.900355746459965,77.81933639526368,35.68395574645996,77.57033639526367Z" fill="#FFFFFF" fill-opacity="1"/></g></mask><mask id="master_svg2_17_59"><g transform="matrix(1,0,0,-1,0,109.29535675048828)"><path d="M13.035720825195312,72.79527837524414C13.035720825195312,65.57487837524414,16.30377082519531,59.12085837524414,21.434630825195313,54.81646237524414C21.463310825195315,54.79299737524414,21.497200825195314,54.76562237524414,21.536310825195315,54.73172997524414C21.647110825195313,54.64178444524414,21.80745082519531,54.65612331524414,21.900010825195313,54.76432037524414C21.933900825195312,54.80212237524414,21.959970825195313,54.83471237524414,21.982130825195313,54.86078337524414C22.50225082519531,55.46564137524414,22.899840825195312,55.93101837524414,23.177520825195312,56.25690837524414C23.20092082519531,56.28167837524414,23.22832082519531,56.31426837524414,23.258320825195312,56.350768375244144C23.35352082519531,56.45895837524414,23.340420825195313,56.62320837524414,23.230920825195312,56.71836837524414C23.229620825195312,56.71836837524414,23.22832082519531,56.71967837524414,23.22702082519531,56.720978375244144C23.173620825195314,56.76529837524414,23.129320825195315,56.80179837524414,23.09282082519531,56.83308837524414C18.542010825195312,60.65776837524414,15.642860825195312,66.38437837524414,15.642860825195312,72.79527837524414C15.642860825195312,84.31497837524414,24.980320825195314,93.65247837524414,36.500020825195314,93.65247837524414C48.01962082519531,93.65247837524414,57.35712082519531,84.31497837524414,57.35712082519531,72.79527837524414C57.35712082519531,66.32957837524414,54.408420825195314,60.55869837524414,49.78992082519531,56.73401837524414C49.77162082519531,56.71836837524414,49.75082082519531,56.70142837524414,49.72472082519531,56.67926837524414L49.72472082519531,56.67926837524414C49.640020825195315,56.61147837524414,49.62702082519531,56.48763837524414,49.69602082519531,56.40420837524414C49.69732082519531,56.40290837524414,49.69732082519531,56.40160837524414,49.69862082519531,56.40029837524414C49.72082082519531,56.37553837524414,49.739120825195315,56.35336837524414,49.75342082519531,56.33642837524414C50.061020825195314,55.97663837524414,50.51082082519531,55.45130137524414,51.101320825195316,54.76171337524414C51.11302082519531,54.74737287524414,51.124820825195314,54.73172997524414,51.140420825195314,54.71608697524414C51.20952082519531,54.635266475244144,51.332020825195315,54.62483737524414,51.41412082519531,54.69132027524414C51.428520825195314,54.70435507524414,51.44282082519531,54.71478407524414,51.45332082519531,54.72521197524414C56.64932082519531,59.02829837524414,59.964320825195315,65.52267837524414,59.964320825195315,72.79527837524414C59.964320825195315,85.75537837524413,49.46012082519531,96.25957837524413,36.500020825195314,96.25957837524413C23.54122082519531,96.25957837524413,13.035720825195312,85.75537837524413,13.035720825195312,72.79527837524414ZM19.55358082519531,72.79527837524414C19.55358082519531,67.55237837524415,21.943020825195312,62.87383837524414,25.68292082519531,59.76611837524414C25.71032082519531,59.74265837524414,25.742920825195313,59.71528837524414,25.78202082519531,59.682698375244144L25.78202082519531,59.682698375244144C25.891520825195315,59.59404837524414,26.05192082519531,59.60838837524414,26.145720825195312,59.71658837524414C26.161420825195314,59.73483837524414,26.177020825195314,59.75308837524414,26.19002082519531,59.76872837524414C26.689320825195313,60.35272837524414,27.07262082519531,60.79985837524414,27.33852082519531,61.11010837524414C27.389320825195313,61.17006837524414,27.45842082519531,61.25219837524414,27.545820825195314,61.35126837524414C27.61612082519531,61.43469837524414,27.607020825195313,61.55852837524414,27.524920825195313,61.62892837524414C27.52232082519531,61.630228375244144,27.521020825195315,61.63153837524414,27.518420825195314,61.63153837524414C27.468820825195312,61.67324837524414,27.425820825195313,61.70713837524414,27.394520825195315,61.73451837524414C24.203420825195312,64.36512837524414,22.160720825195312,68.33577837524415,22.160720825195312,72.79527837524414C22.160720825195312,80.71447837524414,28.58082082519531,87.13457837524413,36.500020825195314,87.13457837524413C44.41922082519531,87.13457837524413,50.839320825195315,80.71447837524414,50.839320825195315,72.79527837524414C50.839320825195315,68.36577837524413,48.823920825195316,64.41595837524414,45.66802082519531,61.785358375244144C45.62112082519531,61.74754837524414,45.55852082519531,61.69410837524414,45.480320825195314,61.63153837524414C45.39692082519531,61.56504837524414,45.383820825195315,61.44121837524414,45.45032082519531,61.35777837524414C45.45162082519531,61.35647837524414,45.452920825195314,61.35517837524414,45.454220825195314,61.35126837524414C45.53242082519531,61.261318375244144,45.59372082519531,61.18961837524414,45.64062082519531,61.13617837524414C45.90922082519531,60.82070837524414,46.29632082519531,60.36967837524414,46.80082082519531,59.77915837524414C46.825620825195315,59.75047837524414,46.85692082519531,59.71397837524414,46.897320825195315,59.66835837524414L46.896020825195315,59.66835837524414C46.965120825195314,59.58883837524414,47.085020825195315,59.57710837524414,47.16842082519531,59.64358837524414C47.228420825195315,59.694428375244144,47.27922082519531,59.73353837524414,47.318320825195315,59.76611837524414C51.05832082519531,62.87383837524414,53.44642082519531,67.55237837524415,53.44642082519531,72.79527837524414C53.44642082519531,82.15497837524414,45.859620825195314,89.74177837524414,36.500020825195314,89.74177837524414C27.14032082519531,89.74177837524414,19.55358082519531,82.15497837524414,19.55358082519531,72.79527837524414ZM26.07142082519531,72.79527837524414C26.07142082519531,69.67977837524414,27.444120825195313,66.89277837524415,29.60932082519531,64.98167837524414C29.709720825195312,64.89437837524414,29.849220825195314,64.77837837524415,30.029120825195314,64.63495837524414C30.137320825195314,64.54762837524414,30.298920825195314,64.56326837524414,30.388820825195314,64.66887837524413C30.494420825195313,64.79007837524414,30.575320825195313,64.88657837524414,30.63392082519531,64.95307837524415C31.114920825195313,65.51617837524414,31.49042082519531,65.95547837524414,31.76022082519531,66.26837837524414C31.765420825195314,66.27617837524414,31.771920825195313,66.28267837524415,31.77712082519531,66.28917837524415C31.854120825195313,66.37787837524414,31.843620825195313,66.51207837524414,31.755020825195313,66.58637837524414C31.752420825195312,66.58897837524414,31.74982082519531,66.59287837524414,31.745920825195313,66.59427837524414C29.884420825195313,68.02297837524414,28.67862082519531,70.26507837524414,28.67862082519531,72.79527837524414C28.67862082519531,77.11407837524413,32.181320825195314,80.61677837524414,36.500020825195314,80.61677837524414C40.820020825195314,80.61677837524414,44.32142082519531,77.11407837524413,44.32142082519531,72.79527837524414C44.32142082519531,70.27287837524415,43.12212082519531,68.03337837524414,41.268420825195314,66.60467837524413C41.16812082519532,66.52777837524414,41.14982082519531,66.38567837524414,41.226720825195315,66.28657837524415C41.228020825195316,66.28267837524415,41.23062082519532,66.28007837524414,41.23192082519532,66.27747837524414C41.23722082519531,66.27227837524414,41.24112082519531,66.26837837524414,41.24372082519531,66.26437837524414C41.73122082519531,65.69737837524414,42.10272082519531,65.26327837524414,42.35952082519531,64.96347837524414C42.42212082519531,64.89047837524414,42.50552082519531,64.79137837524414,42.609820825195314,64.66887837524413C42.70242082519531,64.56326837524414,42.86142082519531,64.54762837524414,42.97222082519531,64.63495837524414C43.14302082519531,64.77187837524414,43.27602082519532,64.88137837524414,43.37112082519531,64.96477837524414C45.54942082519531,66.87577837524414,46.92862082519531,69.67067837524414,46.92862082519531,72.79527837524414C46.92862082519531,78.55447837524414,42.259220825195314,83.22387837524414,36.500020825195314,83.22387837524414C30.740820825195314,83.22387837524414,26.07142082519531,78.55447837524414,26.07142082519531,72.79527837524414Z" fill="#FFFFFF" fill-opacity="1"/></g></mask></defs><g clip-path="url(#master_svg0_17_49)"><g><g><g mask="url(#master_svg1_17_55)"><g transform="matrix(1,0,0,-1,0,132.96407318115234)"><path d="M15.008031845092773,66.48203659057617L57.993331845092776,66.48203659057617L57.993331845092776,97.49793659057617L15.008031845092773,97.49793659057617L15.008031845092773,66.48203659057617Z" fill="#FFFFFF" fill-opacity="1"/></g></g></g><g><g mask="url(#master_svg2_17_59)"><g transform="matrix(1,0,0,-1,0,122.33222198486328)"><path d="M6.517852783203125,61.16611099243164L66.48215278320313,61.16611099243164L66.48215278320313,115.81441099243165L6.517852783203125,115.81441099243165L6.517852783203125,61.16611099243164Z" fill="#FFFFFF" fill-opacity="1"/></g></g></g></g></g></svg>