<svg xmlns="http://www.w3.org/2000/svg" xmlns:xlink="http://www.w3.org/1999/xlink" fill="none" version="1.1" width="41" height="36" viewBox="0 0 41 36"><defs><clipPath id="master_svg0_17_34"><rect x="0" y="0" width="41" height="36" rx="0"/></clipPath></defs><g clip-path="url(#master_svg0_17_34)"><g><path d="M17.03165487792969,29.2783C18.255254877929687,29.2783,18.871534877929687,28.6599,18.871534877929687,27.432L18.871534877929687,8.58471C18.871534877929687,7.324714,18.255254877929687,6.75,17.03165487792969,6.75L13.883624877929687,6.75C12.661312877929687,6.75,12.043750732929688,7.358143,12.043750732929688,8.58471L12.043750732929688,27.4333C12.033500277929688,28.6599,12.649781877929687,29.2783,13.883624877929687,29.2783L17.03165487792969,29.2783ZM27.115124877929688,29.2783C28.33742487792969,29.2783,28.943424877929687,28.6599,28.943424877929687,27.432L28.943424877929687,8.58471C28.943424877929687,7.324714,28.33742487792969,6.75,27.113824877929687,6.75L23.955524877929687,6.75C22.731924877929686,6.75,22.125924877929688,7.358143,22.125924877929688,8.58471L22.125924877929688,27.4333C22.125924877929688,28.6599,22.731924877929686,29.2783,23.955524877929687,29.2783L27.115124877929688,29.2783L27.115124877929688,29.2783Z" fill="#FFFFFF" fill-opacity="1"/></g></g></svg>