<svg xmlns="http://www.w3.org/2000/svg" xmlns:xlink="http://www.w3.org/1999/xlink" fill="none" version="1.1" width="82" height="82" viewBox="0 0 82 82"><defs><clipPath id="master_svg0_17_42"><rect x="0" y="0" width="82" height="82" rx="0"/></clipPath></defs><g clip-path="url(#master_svg0_17_42)"><g><path d="M32.642368994140625,65.42069140625C34.45266899414062,65.42069140625,35.75716899414063,64.08959140625001,35.75716899414063,62.30589140625L35.75716899414063,19.84403140625C35.75716899414063,18.06040140625,34.45266899414062,16.59619140625,32.589068994140625,16.59619140625C31.284668994140624,16.59619140625,30.406068994140625,17.15525240625,28.995168994140624,18.48629140625L17.201768994140625,29.58759140625C17.015468994140626,29.74729140625,16.802468994140625,29.82709140625,16.536268994140627,29.82709140625L8.576368994140626,29.82709140625C4.822688994140625,29.82709140625,2.799468994140625,31.87699140625,2.799468994140625,35.89689140625L2.799468994140625,46.19959140625C2.799468994140625,50.19289140625,4.822688994140625,52.24269140625,8.576368994140626,52.24269140625L16.536268994140627,52.24269140625C16.802468994140625,52.24269140625,17.015468994140626,52.32259140625,17.201768994140625,52.48229140625L28.995168994140624,63.68999140625C30.273068994140626,64.88799140625,31.337968994140624,65.42049140625,32.642368994140625,65.42069140625Z" fill="#FFFFFF" fill-opacity="1"/></g><g><path d="M47.23200440039062,52.6696087890625C48.13717040039062,53.3085087890625,49.44165040039063,53.1222087890625,50.213600400390625,52.0573087890625C52.28986040039062,49.2620087890625,53.54113040039063,45.1623087890625,53.54113040039063,40.9827087890625C53.54113040039063,36.8031687890625,52.28986040039062,32.7300787890625,50.213600400390625,29.9081217890625C49.44158040039063,28.8432622890625,48.16373040039063,28.6569167890625,47.23200440039062,29.2691877890625C46.087269400390625,30.0678687890625,45.927563400390625,31.4255287890625,46.77947840039062,32.5703287890625C48.323510400390624,34.6468487890625,49.255240400390626,37.8147387890625,49.255240400390626,40.9828087890625C49.255240400390626,44.1508087890625,48.27020040039063,47.3187087890625,46.752831400390626,49.421808789062496C45.954200400390626,50.5666087890625,46.08728440039062,51.871108789062504,47.23200440039062,52.6696087890625Z" fill="#FFFFFF" fill-opacity="1"/></g><g><path d="M57.85355170703125,59.85754453125C58.89162970703125,60.54964453125,60.16966970703125,60.28344453125,60.91496970703125,59.21854453125C64.42892970703124,54.32024453125,66.47892970703126,47.797944531249996,66.47892970703126,40.98254453125C66.47892970703126,34.140844531249996,64.48235970703125,27.59221453125,60.91497970703125,22.71962253125C60.14295970703125,21.68137403125,58.89174970703125,21.41518153125,57.85355670703125,22.10735153125C56.84163670703125,22.79949453125,56.68189070703125,24.10392453125,57.48063370703125,25.24872453125C60.38227970703125,29.50823453125,62.19293970703125,35.09874453125,62.19293970703125,40.982444531249996C62.19293970703125,46.866244531250004,60.40905970703125,52.50974453125,57.48063370703125,56.71624453125C56.70861570703125,57.86094453125,56.84165070703125,59.16544453125,57.85355170703125,59.85754453125Z" fill="#FFFFFF" fill-opacity="1"/></g><g><path d="M68.58147334375,67.1247623046875C69.56667734375,67.7903623046875,70.87132734375,67.5240623046875,71.64340734375,66.4326623046875C76.56827734375,59.4844623046875,79.36357734375,50.4862623046875,79.36357734375,40.981862304687496C79.36357734375,31.4775623046875,76.48806734375,22.5062723046875,71.64340734375,15.5311423046875C70.87138734375,14.4130241046875,69.56662734375,14.1467543046875,68.58147334375,14.8390013046875C67.57010634375,15.5577523046875,67.41036034375,16.8622223046875,68.18237834375,17.9803723046875C72.46828734375,24.2897623046875,75.13059734375,32.3828623046875,75.13059734375,40.9813623046875C75.13059734375,49.5802623046875,72.57514734375,57.8067623046875,68.18237834375,63.9823623046875C67.41036034375,65.1004623046875,67.57010634375,66.4049623046875,68.58147334375,67.1247623046875L68.58147334375,67.1247623046875Z" fill="#FFFFFF" fill-opacity="1"/></g></g></svg>