<svg xmlns="http://www.w3.org/2000/svg" xmlns:xlink="http://www.w3.org/1999/xlink" fill="none" version="1.1" width="82" height="82" viewBox="0 0 82 82"><defs><clipPath id="master_svg0_17_037"><rect x="0" y="0" width="82" height="82" rx="0"/></clipPath></defs><g clip-path="url(#master_svg0_17_037)"><g><path d="M32.642368994140625,65.42069140625C34.45266899414062,65.42069140625,35.75716899414063,64.08959140625001,35.75716899414063,62.30589140625L35.75716899414063,19.84403140625C35.75716899414063,18.06040140625,34.45266899414062,16.59619140625,32.589068994140625,16.59619140625C31.284668994140624,16.59619140625,30.406068994140625,17.15525240625,28.995168994140624,18.48629140625L17.201768994140625,29.58759140625C17.015468994140626,29.74729140625,16.802468994140625,29.82709140625,16.536268994140627,29.82709140625L8.576368994140626,29.82709140625C4.822688994140625,29.82709140625,2.799468994140625,31.87699140625,2.799468994140625,35.89689140625L2.799468994140625,46.19959140625C2.799468994140625,50.19289140625,4.822688994140625,52.24269140625,8.576368994140626,52.24269140625L16.536268994140627,52.24269140625C16.802468994140625,52.24269140625,17.015468994140626,52.32259140625,17.201768994140625,52.48229140625L28.995168994140624,63.68999140625C30.273068994140626,64.88799140625,31.337968994140624,65.42049140625,32.642368994140625,65.42069140625Z" fill="#FFFFFF" fill-opacity="1"/></g></g></svg>