<svg xmlns="http://www.w3.org/2000/svg" xmlns:xlink="http://www.w3.org/1999/xlink" fill="none" version="1.1" width="50" height="50" viewBox="0 0 50 50"><defs><clipPath id="master_svg0_10_14"><rect x="0" y="0" width="50" height="50" rx="0"/></clipPath></defs><g clip-path="url(#master_svg0_10_14)"><g><path d="M3.18124201171875,10.438186494140625Q2.08335701171875,13.345396494140624,2.08335701171875,17.816656494140624L2.08335701171875,32.187456494140626Q2.08335701171875,36.658956494140625,3.18128201171875,39.56575649414062Q4.07352271171875,41.92805649414063,6.01486701171875,43.93565649414062Q6.03915701171875,43.96085649414062,6.06428701171875,43.985156494140625Q8.07335701171875,45.92795649414062,10.43743701171875,46.82145649414063Q13.34625701171875,47.92085649414062,17.81668701171875,47.92085649414062L32.18338701171875,47.92085649414062Q36.65298701171875,47.92085649414062,39.56288701171875,46.820556494140625Q41.92498701171875,45.927356494140625,43.93488701171875,43.98595649414062Q43.96048701171875,43.96125649414063,43.98518701171875,43.93565649414062Q45.92678701171875,41.92785649414063,46.81868701171875,39.566656494140624Q47.91668701171875,36.660256494140626,47.91668701171875,32.187456494140626L47.91668701171875,17.816656494140624Q47.91668701171875,13.345086494140626,46.81888701171875,10.437516494140624Q45.92638701171875,8.073826494140626,43.98518701171875,6.066366494140625Q43.96008701171875,6.040416494140625,43.93408701171875,6.015356494140625Q41.92378701171875,4.075655194140625,39.56258701171875,3.183231494140625Q36.65238701171875,2.083326494140625,32.18338701171875,2.083326494140625L17.81668701171875,2.083326494140625Q13.34683701171875,2.083326494140625,10.43771701171875,3.182344494140625Q8.074557011718749,4.075111794140625,6.06510701171875,6.016146494140625Q6.03915701171875,6.041216494140625,6.01409701171875,6.067156494140625Q4.07308861171875,8.076576494140625,3.18124201171875,10.438186494140625ZM6.25001701171875,24.999956494140626L6.25001701171875,17.816656494140624Q6.25001701171875,14.105946494140625,7.07921701171875,11.910226494140625Q7.66179701171875,10.367536494140625,8.98589701171875,8.988006494140624Q10.365697011718751,7.663646494140625,11.91024701171875,7.080136494140625Q14.10764701171875,6.249986494140625,17.81668701171875,6.249986494140625L32.18338701171875,6.249986494140625Q35.891287011718745,6.249986494140625,38.08948701171875,7.080806494140624Q39.63358701171875,7.664376494140625,41.01488701171875,8.988736494140625Q42.33798701171875,10.365776494140626,42.92078701171875,11.909346494140625Q43.74998701171875,14.105516494140625,43.74998701171875,17.816656494140624L43.74998701171875,32.187456494140626Q43.74998701171875,35.89945649414062,42.92088701171875,38.09425649414062Q42.33848701171875,39.635856494140626,41.01448701171875,41.013656494140626Q39.63368701171875,42.339156494140624,38.08928701171875,42.92315649414063Q35.891587011718755,43.754156494140624,32.18338701171875,43.754156494140624L17.81668701171875,43.754156494140624Q14.10738701171875,43.754156494140624,11.910517011718749,42.92385649414062Q10.36540701171875,42.339856494140626,8.98594701171875,41.01415649414062Q7.661917011718749,39.636456494140624,7.07917701171875,38.09355649414063Q6.25001701171875,35.898256494140625,6.25001701171875,32.187456494140626L6.25001701171875,24.999956494140626Z" fill-rule="evenodd" fill="#000000" fill-opacity="1"/></g><g><line x1="13.6353759765625" y1="25.0020854473114" x2="36.36454200744629" y2="25.0020854473114" fill-opacity="0" stroke-opacity="1" stroke="#000000" fill="none" stroke-width="4.166666507720947" stroke-linecap="ROUND" stroke-linejoin="round"/></g><g transform="matrix(0,1,-1,0,36.558349609375,-9.2874755859375)"><line x1="22.92291259765625" y1="11.552103757858276" x2="45.65207862854004" y2="11.552103757858276" fill-opacity="0" stroke-opacity="1" stroke="#000000" fill="none" stroke-width="4.166666507720947" stroke-linecap="ROUND" stroke-linejoin="round"/></g></g></svg>