<svg xmlns="http://www.w3.org/2000/svg" xmlns:xlink="http://www.w3.org/1999/xlink" fill="none" version="1.1" width="50" height="50" viewBox="0 0 50 50"><defs><clipPath id="master_svg0_10_38"><rect x="0" y="0" width="50" height="50" rx="0"/></clipPath></defs><g clip-path="url(#master_svg0_10_38)"><g><path d="M43.75001298828125,43.75L43.75001298828125,6.25Q43.75001298828125,6.147652,43.73991298828125,6.045798Q43.72991298828125,5.943943,43.70991298828125,5.843562Q43.69001298828125,5.743181,43.66031298828125,5.64524Q43.63051298828125,5.5473,43.59141298828125,5.452743Q43.55221298828125,5.358186,43.50401298828125,5.267924Q43.45571298828125,5.1776599999999995,43.39891298828125,5.09256Q43.34201298828125,5.00746,43.27711298828125,4.92835Q43.21211298828125,4.84923,43.13981298828125,4.77686Q43.06741298828125,4.70449,42.98831298828125,4.6395599999999995Q42.90921298828125,4.57463,42.82411298828125,4.5177700000000005Q42.73901298828125,4.46091,42.64871298828125,4.41266Q42.55841298828125,4.36442,42.46391298828125,4.3252500000000005Q42.36931298828125,4.28608,42.27141298828125,4.25637Q42.17351298828125,4.22666,42.07311298828125,4.2067Q41.97271298828125,4.18673,41.87081298828125,4.1767Q41.76901298828125,4.16667,41.66661298828125,4.16667L8.33331298828125,4.16667Q8.23096498828125,4.16667,8.12911098828125,4.1767Q8.02725598828125,4.18673,7.92687498828125,4.2067Q7.82649398828125,4.22666,7.72855298828125,4.25637Q7.63061298828125,4.28608,7.53605598828125,4.3252500000000005Q7.44149898828125,4.36442,7.35123698828125,4.41266Q7.2609729882812495,4.46091,7.17587298828125,4.5177700000000005Q7.09077298828125,4.57463,7.01166298828125,4.6395599999999995Q6.93254298828125,4.70449,6.86017298828125,4.77686Q6.78780298828125,4.84923,6.7228729882812495,4.92835Q6.65794298828125,5.00746,6.6010829882812505,5.09256Q6.54422298828125,5.1776599999999995,6.49597298828125,5.267924Q6.44773298828125,5.358186,6.4085629882812505,5.452743Q6.36939298828125,5.5473,6.33968298828125,5.64524Q6.30997298828125,5.743181,6.29001298828125,5.843562Q6.27004298828125,5.943943,6.26001298828125,6.045798Q6.24998298828125,6.147652,6.24998298828125,6.25L6.24998298828125,43.75Q6.24998298828125,43.9478,6.28719298828125,44.142Q6.32440298828125,44.3362,6.39748298828125,44.52Q6.4705729882812495,44.7037,6.57693298828125,44.8704Q6.68329298828125,45.0372,6.81912298828125,45.1809Q6.88942298828125,45.2553,6.96666298828125,45.3224Q7.0439129882812495,45.3896,7.12737298828125,45.4488Q7.2108329882812505,45.5081,7.29969298828125,45.5588Q7.38855698828125,45.6096,7.48196898828125,45.6514Q7.57538098828125,45.6933,7.67244198828125,45.7257Q7.76950398828125,45.7582,7.86928098828125,45.781Q7.96905698828125,45.8038,8.07058798828125,45.8167Q8.17211798828125,45.8296,8.27442478828125,45.8325Q8.37673148828125,45.8354,8.47882898828125,45.8282Q8.58092698828125,45.8211,8.68183198828125,45.804Q8.78273698828125,45.7868,8.88147898828125,45.7599Q8.98021998828125,45.733,9.07584598828125,45.6965Q9.17147198828125,45.66,9.26306198828125,45.6144Q9.35465298828125,45.5687,9.44132298828125,45.5142Q9.52799298828125,45.4598,9.60891298828125,45.3972Q9.68983298828125,45.3345,9.76422298828125,45.2642L25.00001298828125,30.8664L40.23571298828125,45.2642Q40.37951298828125,45.4,40.54621298828125,45.5064Q40.71291298828125,45.6127,40.89671298828125,45.6858Q41.08041298828125,45.7589,41.27461298828125,45.7961Q41.46891298828125,45.8333,41.66661298828125,45.8333Q41.76901298828125,45.8333,41.87081298828125,45.8233Q41.97271298828125,45.8133,42.07311298828125,45.7933Q42.17351298828125,45.7733,42.27141298828125,45.7436Q42.36931298828125,45.7139,42.46391298828125,45.6747Q42.55841298828125,45.6356,42.64871298828125,45.5873Q42.73901298828125,45.5391,42.82411298828125,45.4822Q42.90921298828125,45.4254,42.98831298828125,45.3604Q43.06741298828125,45.2955,43.13981298828125,45.2231Q43.21211298828125,45.1508,43.27711298828125,45.0717Q43.34201298828125,44.9925,43.39891298828125,44.9074Q43.45571298828125,44.8223,43.50401298828125,44.7321Q43.55221298828125,44.6418,43.59141298828125,44.5473Q43.63051298828125,44.4527,43.66031298828125,44.3548Q43.69001298828125,44.2568,43.70991298828125,44.1564Q43.72991298828125,44.0561,43.73991298828125,43.9542Q43.75001298828125,43.8523,43.75001298828125,43.75ZM39.58331298828125,8.33333L39.58331298828125,38.9148L26.43091298828125,26.4858Q26.35921298828125,26.418,26.28141298828125,26.3574Q26.20361298828125,26.2967,26.12041298828125,26.2436Q26.03721298828125,26.1906,25.94941298828125,26.1456Q25.86161298828125,26.1006,25.76991298828125,26.0642Q25.67831298828125,26.0277,25.58361298828125,26.0001Q25.48881298828125,25.9724,25.39201298828125,25.9539Q25.29511298828125,25.9353,25.19681298828125,25.926Q25.09861298828125,25.9167,25.00001298828125,25.9167Q24.90131298828125,25.9167,24.80311298828125,25.926Q24.70491298828125,25.9353,24.60801298828125,25.9539Q24.51111298828125,25.9724,24.41641298828125,26.0001Q24.32171298828125,26.0277,24.23001298828125,26.0642Q24.13831298828125,26.1006,24.05051298828125,26.1456Q23.96271298828125,26.1906,23.87951298828125,26.2436Q23.79631298828125,26.2967,23.718512988281248,26.3574Q23.640812988281247,26.418,23.569112988281248,26.4858L10.41664298828125,38.9148L10.41664298828125,8.33333L39.58331298828125,8.33333Z" fill-rule="evenodd" fill="#000000" fill-opacity="1"/></g></g></svg>