<svg xmlns="http://www.w3.org/2000/svg" xmlns:xlink="http://www.w3.org/1999/xlink" fill="none" version="1.1" width="50" height="50" viewBox="0 0 50 50"><defs><clipPath id="master_svg0_10_6"><rect x="0" y="0" width="50" height="50" rx="0"/></clipPath></defs><g clip-path="url(#master_svg0_10_6)"><g><path d="M45.83331298828125,47.91660971679688L33.33121298828125,47.91660971679688C32.180612988281254,47.91660971679688,31.24791298828125,46.98390971679687,31.24791298828125,45.833309716796876L31.24791298828125,34.46870971679687C31.31171298828125,30.976309716796877,28.49811298828125,28.110909716796876,25.00521298828125,28.110909716796876C21.51221298828125,28.110909716796876,18.69871298828125,30.976309716796877,18.76251298828125,34.46870971679687L18.76251298828125,45.833309716796876C18.76251298828125,46.98390971679687,17.82971298828125,47.91660971679688,16.67911298828125,47.91660971679688L4.16664298828125,47.91660971679688C3.01605298828125,47.91660971679688,2.08331298828125,46.98390971679687,2.08331298828125,45.833309716796876L2.08331298828125,24.047909716796877C2.08369222328125,23.478009716796876,2.31701798828125,22.933109716796874,2.72914598828125,22.539609716796875L23.56251298828125,2.6583127167968748C24.36771298828125,1.892174716796875,25.63231298828125,1.892174716796875,26.43751298828125,2.6583127167968748L47.27081298828125,22.539609716796875C47.68291298828125,22.933109716796874,47.91631298828125,23.478009716796876,47.91661298828125,24.047909716796877L47.91661298828125,45.833309716796876C47.91661298828125,46.98390971679687,46.98391298828125,47.91660971679688,45.83331298828125,47.91660971679688Z" fill="#000000" fill-opacity="1"/></g></g></svg>