<svg xmlns="http://www.w3.org/2000/svg" xmlns:xlink="http://www.w3.org/1999/xlink" fill="none" version="1.1" width="50" height="50" viewBox="0 0 50 50"><defs><clipPath id="master_svg0_10_20"><rect x="0" y="0" width="50" height="50" rx="0"/></clipPath></defs><g clip-path="url(#master_svg0_10_20)"><g><path d="M34.98332001953125,8.133355595703126C40.68332001953125,8.448475595703126,45.06242001953125,13.301875595703125,44.79162001953125,19.004235595703125C44.79162001953125,25.404235595703124,39.26662001953125,29.335435595703125,33.96462001953125,34.05003559570312C28.73122001953125,38.72293559570313,25.91252001953125,41.27713559570312,25.00002001953125,41.866735595703126C24.00622001953125,41.22293559570313,20.53542001953125,38.068735595703124,16.03542001953125,34.05003559570312C10.71041001953125,29.316735595703125,5.20832001953125,25.347935595703124,5.20832001953125,19.004235595703125C4.93758001953125,13.301875595703125,9.31662001953125,8.448475595703126,15.01662001953125,8.133355595703126C18.10262001953125,8.039835595703124,21.01042001953125,9.575635595703126,22.67292001953125,12.177105595703125C24.42292001953125,14.625035595703125,24.71462001953125,15.850035595703124,25.00622001953125,15.850035595703124C25.29792001953125,15.850035595703124,25.58542001953125,14.625035595703125,27.31872001953125,12.170855595703125C28.97252001953125,9.556335595703125,31.89182001953125,8.018505595703125,34.98332001953125,8.133355595703126ZM34.98332001953125,3.966692765703125C31.15092001953125,3.843993595703125,27.47172001953125,5.475375595703125,24.98962001953125,8.397945595703124C22.50982001953125,5.484185595703125,18.84112001953125,3.854076595703125,15.01662001953125,3.966692765703125C7.01403001953125,4.2796265957031245,0.76838701953125,11.000115595703125,1.04165672953125,19.004235595703125C1.04165672953125,26.525035595703127,6.35416001953125,31.143735595703124,11.48962001953125,35.608335595703124C12.07912001953125,36.12083559570313,12.67502001953125,36.63753559570313,13.26662001953125,37.164635595703125L15.40622001953125,39.077135595703126C17.73962001953125,41.29743559570313,20.18592001953125,43.396035595703125,22.73542001953125,45.36463559570313C24.11332001953125,46.25673559570313,25.88662001953125,46.25673559570313,27.26462001953125,45.36463559570313C29.89522001953125,43.33593559570313,32.416720019531255,41.16973559570312,34.81872001953125,38.875035595703125L36.73962001953125,37.15833559570312C37.35002001953125,36.616735595703126,37.96872001953125,36.077135595703126,38.58332001953125,35.545835595703124C43.44582001953125,31.327135595703126,48.95832001953125,26.545835595703124,48.95832001953125,19.004235595703125C49.23162001953125,11.000105595703126,42.98592001953125,4.279621595703125,34.98332001953125,3.966692765703125Z" fill="#000000" fill-opacity="1"/></g></g></svg>