<svg xmlns="http://www.w3.org/2000/svg" xmlns:xlink="http://www.w3.org/1999/xlink" fill="none" version="1.1" width="50" height="50" viewBox="0 0 50 50"><defs><clipPath id="master_svg0_10_74"><rect x="0" y="0" width="50" height="50" rx="0"/></clipPath></defs><g clip-path="url(#master_svg0_10_74)"><g><path d="M36.0417,3.2291259765625C31.3542,3.2291259765625,27.8125,5.1041259765625,25,9.0624559765625C22.1875,5.2082959765625,18.6458,3.3332929765625,13.9583,3.3332929765625C6.25,3.2291259765625,0,9.9999559765625,0,18.3333259765625C0,25.9374259765625,5.625,30.8333259765625,11.0417,35.5208259765625C11.6667,36.0416259765625,12.3958,36.6666259765625,13.0208,37.2916259765625L15.4167,39.3749259765625C20,43.4374259765625,22.2917,45.5208259765625,23.3333,46.1458259765625C23.8542,46.4583259765625,24.4792,46.6666259765625,25,46.6666259765625C25.5208,46.6666259765625,26.1458,46.4583259765625,26.6667,46.1458259765625C27.7083,45.5208259765625,29.5833,43.8541259765625,34.7917,39.0624259765625L36.875,37.1874259765625C37.6042,36.5624259765625,38.2292,35.9374259765625,38.9583,35.4166259765625C44.4792,30.8333259765625,50,26.0416259765625,50,18.3333259765625C50,9.9999559765625,43.75,3.2291264732675,36.0417,3.2291259765625Z" fill="#FF3040" fill-opacity="1"/></g></g></svg>