<svg xmlns="http://www.w3.org/2000/svg" xmlns:xlink="http://www.w3.org/1999/xlink" fill="none" version="1.1" width="50" height="50" viewBox="0 0 50 50"><defs><clipPath id="master_svg0_10_24"><rect x="0" y="0" width="50" height="50" rx="0"/></clipPath></defs><g clip-path="url(#master_svg0_10_24)"><g><path d="M47.84002373046875,46.39334877929687Q47.91542373046875,46.12324877929687,47.91672373046875,45.84284877929687Q47.91802373046875,45.56244877929687,47.84512373046875,45.291748779296874L45.26422373046875,35.70564877929688Q47.76072373046875,31.006248779296875,47.91892373046875,25.725848779296875Q48.08182373046875,20.290948779296876,45.75852373046875,15.318748779296875Q43.43532373046875,10.346558779296874,39.16202373046875,6.984478779296875Q34.66812373046875,3.448842779296875,28.93872373046875,2.451148779296875Q23.20942373046875,1.4534487792968749,17.784923730468748,3.261900779296875Q12.62668373046875,4.981588779296875,8.75945373046875,8.875748779296874Q4.89221773046875,12.769908779296875,3.20836273046875,17.939948779296877Q1.43759373046875,23.376848779296875,2.4750237304687497,29.099148779296875Q3.51245173046875,34.82144877929687,7.07918373046875,39.29064877929687Q10.47084373046875,43.54054877929688,15.45902373046875,45.829248779296876Q20.44722373046875,48.117948779296874,25.88082373046875,47.91734877929687Q31.15012373046875,47.722848779296875,35.82442373046875,45.202948779296875L45.27332373046875,47.839948779296876Q45.37192373046875,47.86744877929687,45.47272373046875,47.88524877929687Q45.57352373046875,47.90294877929688,45.67562373046875,47.91064877929688Q45.77762373046875,47.918448779296874,45.87992373046875,47.916148779296876Q45.98232373046875,47.91384877929688,46.08392373046875,47.901548779296874Q46.18552373046875,47.88924877929688,46.28542373046875,47.86704877929687Q46.38532373046875,47.844848779296875,46.48252373046875,47.812948779296875Q46.57982373046875,47.781048779296874,46.67352373046875,47.739748779296875Q46.76712373046875,47.698448779296875,46.85632373046875,47.64824877929688Q46.94542373046875,47.598048779296874,47.02922373046875,47.53924877929688Q47.11302373046875,47.480548779296875,47.19072373046875,47.41384877929688Q47.26832373046875,47.34714877929687,47.33912373046875,47.273148779296875Q47.40982373046875,47.19914877929688,47.47292373046875,47.118648779296876Q47.53612373046875,47.03804877929687,47.59102373046875,46.95174877929688Q47.64602373046875,46.86534877929687,47.69222373046875,46.774048779296876Q47.73842373046875,46.68274877929687,47.77552373046875,46.587348779296875Q47.81252373046875,46.49194877929688,47.84002373046875,46.39334877929687ZM42.87092373046875,42.84364877929688L41.02172373046875,35.974948779296874Q40.96822373046875,35.776348779296875,40.95462373046875,35.57114877929688Q40.94102373046875,35.36594877929687,40.96782373046875,35.162048779296875Q40.99462373046875,34.95814877929688,41.06072373046875,34.76344877929688Q41.12682373046875,34.56864877929688,41.22972373046875,34.390648779296875Q43.61432373046875,30.265848779296874,43.75412373046875,25.600948779296875Q43.88732373046875,21.156748779296876,41.98362373046875,17.082548779296875Q40.07992373046875,13.008368779296875,36.58562373046875,10.259128779296875Q32.917823730468754,7.373418779296875,28.22392373046875,6.556038779296875Q23.53012373046875,5.738658779296875,19.10272373046875,7.214688779296875Q14.88472373046875,8.620898779296876,11.71593373046875,11.811788779296876Q8.54711373046875,15.002648779296875,7.17019373046875,19.230348779296875Q5.72492373046875,23.667848779296875,6.5748537304687495,28.355848779296874Q7.42478373046875,33.043948779296876,10.335883730468751,36.69164877929688Q13.10929373046875,40.16684877929688,17.19662373046875,42.04224877929688Q21.28392373046875,43.91754877929687,25.72712373046875,43.75354877929688Q30.39092373046875,43.581348779296874,34.49902373046875,41.168248779296874Q34.68002373046875,41.06194877929688,34.87852373046875,40.993848779296876Q35.07712373046875,40.925748779296875,35.28522373046875,40.89864877929688Q35.493323730468745,40.87154877929687,35.70272373046875,40.886548779296874Q35.91212373046875,40.901548779296874,36.11422373046875,40.95794877929688L42.87092373046875,42.84364877929688Z" fill-rule="evenodd" fill="#000000" fill-opacity="1"/></g></g></svg>