<svg xmlns="http://www.w3.org/2000/svg" xmlns:xlink="http://www.w3.org/1999/xlink" fill="none" version="1.1" width="50" height="50" viewBox="0 0 50 50"><defs><clipPath id="master_svg0_10_69"><rect x="0" y="0" width="50" height="50" rx="0"/></clipPath></defs><g clip-path="url(#master_svg0_10_69)"><g><path d="M2.36344984375,24.37071240234375Q2.30722984375,29.02171240234375,4.17234897575,33.28361240234375Q6.02933984375,37.52681240234375,9.470799843750001,40.64061240234375L9.58107984375,44.27581240234375Q9.60934984375,45.17221240234375,10.061599843749999,45.93681240234375Q10.48922984375,46.65981240234375,11.20351984375,47.11011240234375Q11.91779984375,47.56041240234375,12.75449984375,47.63451240234375Q13.63937984375,47.71291240234375,14.46293984375,47.35081240234375L18.548839843750002,45.54671240234375Q21.70723984375,46.40191240234375,24.97973984375,46.39691240234375Q29.54003984375,46.53711240234375,33.748539843749995,44.87311240234375Q37.82083984375,43.26291240234375,40.98083984375,40.20281240234375Q44.14083984375,37.14261240234375,45.88083984375,33.124112402343755Q47.68533984375,28.95671240234375,47.68533984375,24.37711240234375Q47.68533984375,19.797412402343753,45.88083984375,15.63001240234375Q44.14083984375,11.61147240234375,40.98083984375,8.55134240234375Q37.82083984375,5.49121240234375,33.748539843749995,3.88103340234375Q29.55393984375,2.22252240234375,25.01003984375,2.3563024023437498Q20.46043984375,2.20328240234375,16.25813984375,3.85757940234375Q12.18002984375,5.46298240234375,9.019559843749999,8.52884240234375Q5.85905984375,11.594742402343751,4.13031204375,15.62241240234375Q2.3400698437500003,19.793412402343748,2.36344984375,24.37071240234375ZM7.49134984375,31.83111240234375Q5.93649984375,28.27821240234375,5.98627984375,24.40031240234375L5.98639984375,24.36651240234375Q5.96402984375,20.53561240234375,7.45951984375,17.05141240234375Q8.902199843750001,13.69016240234375,11.54212984375,11.129252402343749Q14.18203984375,8.56840240234375,17.58523984375,7.22868240234375Q21.11283984375,5.83998240234375,24.94043984375,5.97899240234375L25.00243984375,5.98124240234375L25.06433984375,5.97925240234375Q28.89133984375,5.85636240234375,32.41643984375,7.250152402343749Q35.818339843749996,8.59526240234375,38.46053984375,11.153922402343749Q41.10263984375,13.71257240234375,42.55623984375,17.06961240234375Q44.06243984375,20.54811240234375,44.06243984375,24.37711240234375Q44.06243984375,28.20601240234375,42.55623984375,31.68451240234375Q41.10263984375,35.041612402343745,38.46053984375,37.60021240234375Q35.818339843749996,40.15881240234375,32.41643984375,41.50401240234375Q28.89133984375,42.89781240234375,25.06433984375,42.77491240234375L25.03273984375,42.77381240234375L25.00113984375,42.77391240234375Q22.17673984375,42.78181240234375,19.45213984375,42.03791240234375Q18.261039843749998,41.71261240234375,17.13183984375,42.21211240234375L13.19577984375,43.95001240234375L13.08975984375,40.45551240234375Q13.02731984375,38.95471240234375,11.919709843749999,37.97071240234375Q9.04619984375,35.38391240234375,7.49134984375,31.83111240234375Z" fill-rule="evenodd" fill="#000000" fill-opacity="1"/></g><g><path d="M37.062489453124996,21.108352216796874C37.421789453125,20.544322216796875,37.322489453125,19.803430216796876,36.827189453125,19.354003216796876C36.331989453125004,18.904574416796876,35.584989453125004,18.877379216796875,35.058289453125,19.289606216796876L29.733289453125,23.560442216796876C29.266789453125,23.913762216796876,28.622589453125002,23.915462216796875,28.154189453125,23.564602216796875L23.041689453125002,19.729190216796876C21.507969453125,18.580961216796876,19.321019453125,18.984353216796876,18.297909453125,20.604192216796875L12.949993453125,28.895862216796875C12.587421453125,29.459472216796875,12.684786553125,30.202572216796874,13.180336453125,30.653772216796874C13.675888453125,31.104972216796874,14.424789453125,31.132472216796877,14.952079453125,30.718772216796875L20.277079453125,26.450022216796874C20.744079453125,26.095662216796875,21.389459453125,26.093962216796875,21.858329453125002,26.445862216796876L26.966689453125,30.279172216796873C28.500689453125,31.428972216796875,30.689389453125,31.025472216796874,31.712489453125,29.404172216796873L37.062489453124996,21.108352216796874Z" fill-rule="evenodd" fill="#000000" fill-opacity="1"/></g></g></svg>