<svg xmlns="http://www.w3.org/2000/svg" xmlns:xlink="http://www.w3.org/1999/xlink" fill="none" version="1.1" width="50" height="50" viewBox="0 0 50 50"><defs><clipPath id="master_svg0_10_56"><rect x="0" y="0" width="50" height="50" rx="0"/></clipPath></defs><g clip-path="url(#master_svg0_10_56)"><g><path d="M29.579456494140626,3.639505494140625Q25.900256494140624,2.083326494140625,21.874956494140626,2.083326494140625Q17.849756494140625,2.083326494140625,14.170556494140625,3.639504494140625Q10.618406494140626,5.141931494140625,7.880166494140624,7.880166494140624Q5.141934494140625,10.618396494140626,3.639505494140625,14.170556494140625Q2.083326494140625,17.849756494140625,2.083326494140625,21.874956494140626Q2.083326494140625,25.900256494140624,3.639504494140625,29.579456494140626Q5.141933494140625,33.131556494140625,7.880166494140624,35.86985649414062Q10.618406494140626,38.60805649414063,14.170556494140625,40.11045649414063Q17.849756494140625,41.666656494140625,21.874956494140626,41.666656494140625Q25.900156494140624,41.666656494140625,29.579456494140626,40.11045649414063Q33.131556494140625,38.60805649414063,35.86985649414062,35.86985649414062Q38.60805649414063,33.131556494140625,40.11045649414063,29.579456494140626Q41.666656494140625,25.900156494140624,41.666656494140625,21.874956494140626Q41.666656494140625,17.849756494140625,40.11045649414063,14.170556494140625Q38.60805649414063,10.618406494140626,35.86985649414062,7.880166494140624Q33.131556494140625,5.141933494140625,29.579456494140626,3.639505494140625ZM15.793656494140626,7.477026494140625Q18.694656494140624,6.249986494140625,21.874956494140626,6.249986494140625Q25.055256494140625,6.249986494140625,27.956256494140625,7.477026494140625Q30.759956494140624,8.662866494140625,32.92355649414063,10.826446494140626Q35.08715649414063,12.990026494140626,36.27295649414062,15.793656494140626Q37.499956494140626,18.694756494140627,37.499956494140626,21.874956494140626Q37.499956494140626,25.055256494140625,36.27295649414062,27.956256494140625Q35.087056494140626,30.759956494140624,32.92355649414063,32.92355649414063Q30.759956494140624,35.08715649414063,27.956256494140625,36.27295649414062Q25.055256494140625,37.499956494140626,21.874956494140626,37.499956494140626Q18.694756494140627,37.499956494140626,15.793656494140626,36.27295649414062Q12.990026494140626,35.08715649414063,10.826446494140626,32.92355649414063Q8.662866494140625,30.759956494140624,7.477026494140625,27.956256494140625Q6.249986494140625,25.055256494140625,6.249986494140625,21.874956494140626Q6.249986494140625,18.694756494140627,7.477026494140625,15.793656494140626Q8.662866494140625,12.990026494140626,10.826446494140626,10.826446494140626Q12.990026494140626,8.662866494140625,15.793656494140626,7.477026494140625Z" fill-rule="evenodd" fill="#000000" fill-opacity="1"/></g><g transform="matrix(0.7071067690849304,0.7071067690849304,-0.7071067690849304,0.7071067690849304,35.00811510969652,-12.774939079641626)"><line x1="32.924774169921875" y1="33.7877299785614" x2="49.09689521789551" y2="33.7877299785614" fill-opacity="0" stroke-opacity="1" stroke="#000000" fill="none" stroke-width="4.166666507720947" stroke-linecap="ROUND" stroke-linejoin="round"/></g></g></svg>