<svg xmlns="http://www.w3.org/2000/svg" xmlns:xlink="http://www.w3.org/1999/xlink" fill="none" version="1.1" width="50" height="50" viewBox="0 0 50 50"><defs><clipPath id="master_svg0_10_33"><rect x="0" y="0" width="50" height="50" rx="0"/></clipPath></defs><g clip-path="url(#master_svg0_10_33)"><g transform="matrix(-0.8746829032897949,0.48469558358192444,-0.48469558358192444,-0.8746829032897949,86.17615562514402,-13.425207097807288)"><line x1="44.8236083984375" y1="2.3444011211395264" x2="75.26797294616699" y2="2.3444011211395264" fill-opacity="0" stroke-opacity="1" stroke="#000000" fill="none" stroke-width="4.166666507720947" stroke-linejoin="round"/></g><g><path d="M17.31948701171875,22.077805712890623L2.7075170117187497,7.739085712890625Q2.55929701171875,7.593625712890625,2.4426970117187503,7.421775712890625Q2.3260970117187503,7.249925712890625,2.24572701171875,7.058438712890625Q2.16534701171875,6.866950712890625,2.12434701171875,6.663364712890625Q2.08335701171875,6.459778712890625,2.08335701171875,6.252105712890625Q2.08335701171875,6.149757712890625,2.09338701171875,6.047903712890625Q2.10341701171875,5.946048712890625,2.12338701171875,5.845667712890625Q2.14334701171875,5.745286712890625,2.17305701171875,5.647345712890625Q2.20276701171875,5.549405712890625,2.24193701171875,5.454848712890625Q2.28110701171875,5.360291712890625,2.32934701171875,5.270029712890625Q2.37759701171875,5.1797657128906245,2.43445701171875,5.094665712890625Q2.49131701171875,5.009565712890625,2.55624701171875,4.930455712890625Q2.62117701171875,4.851335712890625,2.69354701171875,4.778965712890625Q2.76591701171875,4.706595712890625,2.84503701171875,4.6416657128906245Q2.92414701171875,4.576735712890625,3.0092470117187498,4.5198757128906255Q3.09434701171875,4.463015712890625,3.18461101171875,4.414765712890625Q3.27487301171875,4.366525712890625,3.36943001171875,4.3273557128906255Q3.46398701171875,4.288185712890625,3.5619270117187503,4.258475712890625Q3.65986801171875,4.228765712890625,3.76024901171875,4.208805712890625Q3.86063001171875,4.188835712890625,3.96248501171875,4.178805712890625Q4.06433901171875,4.168775712890625,4.16668701171875,4.168775712890625L45.83338701171875,4.168775712890625Q46.11428701171875,4.168775712890625,46.38528701171875,4.243215712890625Q46.65618701171875,4.317655712890625,46.89778701171875,4.461215712890625Q46.98578701171875,4.513515712890625,47.06818701171875,4.574175712890625Q47.15058701171875,4.6348357128906255,47.22668701171875,4.703285712890625Q47.30278701171875,4.771745712890625,47.37178701171875,4.847325712890625Q47.44078701171875,4.922905712890625,47.50208701171875,5.004885712890625Q47.56338701171875,5.086865712890625,47.61628701171875,5.174455712890625Q47.66928701171875,5.262043712890625,47.71338701171875,5.354401712890625Q47.75748701171875,5.446760712890625,47.79228701171875,5.542996712890625Q47.82708701171875,5.639233712890625,47.85238701171875,5.738421712890625Q47.87758701171875,5.837608712890625,47.89298701171875,5.938792712890625Q47.90838701171875,6.039975712890625,47.91378701171875,6.142180712890625Q47.91918701171875,6.244386132890625,47.91448701171875,6.346628312890625Q47.90988701171875,6.448870712890625,47.89528701171875,6.5501657128906245Q47.88058701171875,6.651459712890625,47.85608701171875,6.750831712890625Q47.83158701171875,6.850203712890625,47.79748701171875,6.946694712890625Q47.76338701171875,7.043186712890625,47.71998701171875,7.135869712890625Q47.67648701171875,7.228551712890625,47.62428701171875,7.316535712890625L26.16178701171875,43.42690571289062Q26.05528701171875,43.60600571289063,25.91558701171875,43.76040571289062Q25.77578701171875,43.914805712890626,25.60828701171875,44.03860571289062Q25.44068701171875,44.16230571289063,25.25198701171875,44.250405712890625Q25.06318701171875,44.338405712890626,24.86078701171875,44.387405712890626Q24.66138701171875,44.43570571289062,24.45628701171875,44.444105712890625Q24.25128701171875,44.45250571289063,24.04858701171875,44.420805712890626Q23.84588701171875,44.38900571289062,23.65318701171875,44.31830571289063Q23.46058701171875,44.24770571289063,23.28548701171875,44.140805712890625Q23.11028701171875,44.03390571289062,22.95938701171875,43.894905712890626Q22.80848701171875,43.75580571289063,22.68758701171875,43.59000571289062Q22.56668701171875,43.42430571289062,22.48038701171875,43.23810571289062Q22.39418701171875,43.05190571289062,22.34598701171875,42.85240571289062L17.31948701171875,22.077805712890623ZM25.19298701171875,36.90160571289063L21.22908701171875,20.518405712890626Q21.16038701171875,20.234405712890627,21.01618701171875,19.980205712890623Q20.87188701171875,19.726005712890625,20.66338701171875,19.521405712890626L9.264217011718749,8.335435712890625L42.17158701171875,8.335435712890625L25.19298701171875,36.90160571289063Z" fill-rule="evenodd" fill="#000000" fill-opacity="1"/></g></g></svg>