<svg xmlns="http://www.w3.org/2000/svg" xmlns:xlink="http://www.w3.org/1999/xlink" fill="none" version="1.1" width="50" height="50" viewBox="0 0 50 50"><defs><clipPath id="master_svg0_10_275"><rect x="0" y="0" width="50" height="50" rx="0"/></clipPath></defs><g clip-path="url(#master_svg0_10_275)"><g><g><ellipse cx="25.000015258789062" cy="18.359375" rx="8.59375" ry="8.59375" fill-opacity="0" stroke-opacity="1" stroke="#000000" fill="none" stroke-width="4"/></g><g><ellipse cx="25.000015258789062" cy="25" rx="22.265625" ry="22.265625" fill-opacity="0" stroke-opacity="1" stroke="#000000" fill="none" stroke-width="4"/></g><g><path d="M10.512045258789062,38.409635Q9.887665258789063,40.225575,9.722725258789062,42.842965Q9.718765258789062,42.905795,9.718765258789062,42.968745Q9.718765258789062,43.002335,9.719895258789062,43.035905Q9.731575258789062,43.383625,9.859975258789063,43.706925Q9.988375258789063,44.030225,10.218405258789062,44.291225Q10.348665258789062,44.439025,10.505235258789062,44.558525Q10.661815258789062,44.678025,10.838704258789063,44.764725Q11.015591258789062,44.851425,11.205990258789063,44.901925Q11.396388258789063,44.952425,11.592981258789063,44.964825Q11.655810958789063,44.968725,11.718765258789062,44.968725Q11.838957258789062,44.968725,11.958287258789063,44.954325Q12.044455258789062,44.943925,12.129398258789063,44.926125Q12.214342258789063,44.908325,12.297423258789063,44.883224999999996Q12.380503258789062,44.858125,12.461096258789063,44.825925Q12.541689258789063,44.793625,12.619188258789062,44.754625000000004Q12.696687258789062,44.715525,12.770515258789063,44.669925Q12.844335258789062,44.624224999999996,12.913925258789062,44.572325Q12.983515258789062,44.520525,13.048355258789062,44.462825Q13.113185258789063,44.405125,13.172785258789062,44.342025Q13.232375258789062,44.278925,13.286285258789063,44.210925Q13.340185258789063,44.142825,13.387995258789063,44.070425Q13.435805258789063,43.998025,13.477155258789063,43.921625Q13.518505258789062,43.845325,13.553095258789062,43.765725Q13.587685258789062,43.686125000000004,13.615245258789063,43.603825Q13.642805258789062,43.521525,13.663135258789062,43.437225Q13.683465258789063,43.352824999999996,13.696405258789063,43.267025000000004Q13.709345258789062,43.181155000000004,13.714805258789063,43.094535Q13.845805258789063,41.015785,14.294695258789062,39.710245Q14.773355258789064,38.318105,15.730555258789064,37.446735000000004Q18.195125258789062,35.203125,24.99996525878906,35.203125Q31.80486525878906,35.203125,34.26946525878906,37.446735000000004Q35.22666525878906,38.318105,35.70536525878906,39.710235Q36.15366525878906,41.014075,36.28486525878906,43.089065L36.28526525878907,43.094535Q36.297565258789064,43.291125,36.34816525878907,43.481525Q36.398665258789066,43.671925,36.48526525878906,43.848825Q36.571965258789064,44.025725,36.691465258789066,44.182225Q36.811065258789064,44.338825,36.95876525878906,44.469125Q37.094665258789064,44.588825,37.24986525878906,44.682225Q37.40496525878906,44.775625,37.57436525878906,44.839625Q37.74386525878906,44.903725,37.92196525878906,44.936225Q38.10016525878906,44.968725,38.28126525878906,44.968725L38.286865258789064,44.968725Q38.34706525878906,44.968525,38.40706525878906,44.964825Q38.50116525878906,44.958825,38.59436525878906,44.944125Q38.68746525878906,44.929325,38.778765258789065,44.905825Q38.87016525878906,44.882425,38.95886525878906,44.850425Q39.04766525878907,44.818525,39.13296525878906,44.778325Q39.21826525878906,44.738225,39.29946525878906,44.690125Q39.380665258789065,44.642125,39.45696525878906,44.586725Q39.53326525878906,44.531225,39.60396525878906,44.468925Q39.67466525878906,44.406525,39.73926525878906,44.337725Q39.80386525878906,44.269025,39.86166525878906,44.194525Q39.91946525878906,44.120025,39.96996525878906,44.040324999999996Q40.02046525878906,43.960725,40.06326525878906,43.876725Q40.10616525878906,43.792625,40.14086525878906,43.704925Q40.175565258789064,43.617225,40.20186525878906,43.526725Q40.22816525878906,43.436125000000004,40.24586525878907,43.343525Q40.26346525878906,43.250825,40.272365258789065,43.156965Q40.28126525878906,43.063075,40.28126525878906,42.968755L40.28126525878906,42.965925Q40.28116525878906,42.904385,40.27726525878906,42.842965Q40.11236525878906,40.225575,39.48796525878906,38.409635Q38.676465258789065,36.049365,36.962165258789064,34.488815Q33.352865258789066,31.203125,24.99996525878906,31.203125Q16.647115258789064,31.203125,13.037835258789062,34.488815Q11.323590258789062,36.049365,10.512045258789062,38.409635Z" fill-rule="evenodd" fill="#000000" fill-opacity="1"/></g></g></g></svg>