<svg xmlns="http://www.w3.org/2000/svg" xmlns:xlink="http://www.w3.org/1999/xlink" fill="none" version="1.1" width="50" height="50" viewBox="0 0 50 50"><defs><clipPath id="master_svg0_10_61"><rect x="0" y="0" width="50" height="50" rx="0"/></clipPath></defs><g clip-path="url(#master_svg0_10_61)"><g><line x1="4.268768310546875" y1="14.587534666061401" x2="45.729183197021484" y2="14.587534666061401" fill-opacity="0" stroke-opacity="1" stroke="#000000" fill="none" stroke-width="4.166666507720947" stroke-linejoin="round"/></g><g transform="matrix(0.4961763322353363,0.8682217597961426,-0.8682217597961426,0.4961763322353363,17.779775131801216,-20.234420603296712)"><line x1="26.32452392578125" y1="3.1190898418426514" x2="38.324625968933105" y2="3.1190898418426514" fill-opacity="0" stroke-opacity="1" stroke="#000000" fill="none" stroke-width="4.166666507720947" stroke-linecap="ROUND" stroke-linejoin="round"/></g><g transform="matrix(0.4960815906524658,0.8682758808135986,-0.8682758808135986,0.4960815906524658,11.368722877559776,-8.730219348239189)"><line x1="13.205657958984375" y1="3.3459880352020264" x2="24.943477630615234" y2="3.3459880352020264" fill-opacity="0" stroke-opacity="1" stroke="#000000" fill="none" stroke-width="4.166666507720947" stroke-linecap="ROUND" stroke-linejoin="round"/></g><g><path d="M3.181131494140625,10.438396494140626Q2.083326494140625,13.346346494140626,2.083326494140625,17.816656494140624L2.083326494140625,32.187456494140626Q2.083326494140625,36.65905649414063,3.181171494140625,39.566656494140624Q4.073657994140625,41.930356494140625,6.014836494140625,43.93775649414062Q6.039526494140625,43.963356494140626,6.065076494140625,43.987956494140626Q8.074506494140625,45.929056494140625,10.437686494140625,46.82175649414062Q13.346806494140624,47.92085649414062,17.816656494140624,47.92085649414062L32.183356494140625,47.92085649414062Q36.653156494140624,47.92085649414062,39.56225649414063,46.82175649414062Q41.925456494140626,45.929056494140625,43.934856494140625,43.987956494140626Q43.96045649414062,43.963356494140626,43.985156494140625,43.93775649414062Q45.92635649414063,41.930356494140625,46.818856494140626,39.566656494140624Q47.916656494140625,36.65905649414063,47.916656494140625,32.187456494140626L47.916656494140625,17.816656494140624Q47.916656494140625,13.346346494140626,46.818856494140626,10.438396494140626Q45.926056494140624,8.073576494140625,43.985156494140625,6.066366494140625Q43.96045649414062,6.0408264941406244,43.934856494140625,6.016146494140625Q41.925456494140626,4.075110894140625,39.56225649414063,3.182344494140625Q36.653156494140624,2.083326494140625,32.183356494140625,2.083326494140625L17.816656494140624,2.083326494140625Q13.346806494140624,2.083326494140625,10.437686494140625,3.182344494140625Q8.074526494140624,4.075111794140625,6.065076494140625,6.016146494140625Q6.039526494140625,6.0408264941406244,6.014836494140625,6.066366494140625Q4.073901094140625,8.073566494140625,3.181131494140625,10.438396494140626ZM6.249986494140625,25.002056494140625L6.249986494140625,17.816656494140624Q6.249986494140625,14.106656494140625,7.079266494140625,11.910016494140624Q7.6624464941406245,10.365256494140624,8.985466494140624,8.988386494140624Q10.365446494140624,7.663726494140625,11.910216494140625,7.080136494140625Q14.107616494140625,6.249986494140625,17.816656494140624,6.249986494140625L32.183356494140625,6.249986494140625Q35.89235649414063,6.249986494140625,38.08975649414062,7.080136494140625Q39.63445649414062,7.663716494140624,41.014456494140624,8.988316494140625Q42.33755649414063,10.365216494140626,42.920756494140626,11.910016494140624Q43.749956494140626,14.106656494140625,43.749956494140626,17.816656494140624L43.749956494140626,32.187456494140626Q43.749956494140626,35.898656494140624,42.920756494140626,38.094756494140626Q42.337856494140624,39.638656494140626,41.014456494140624,41.01585649414063Q39.63445649414062,42.340456494140625,38.08975649414062,42.92405649414062Q35.89235649414063,43.754156494140624,32.183356494140625,43.754156494140624L17.816656494140624,43.754156494140624Q14.107616494140625,43.754156494140624,11.910216494140625,42.92405649414062Q10.365466494140625,42.340456494140625,8.985496494140625,41.015756494140625Q7.662126494140625,39.63855649414062,7.0792264941406255,38.094756494140626Q6.249986494140625,35.898656494140624,6.249986494140625,32.187456494140626L6.249986494140625,25.002056494140625Z" fill-rule="evenodd" fill="#000000" fill-opacity="1"/></g><g><path d="M20.33957179296875,36.800021435546874C19.75387079296875,36.46192143554688,19.39325698196875,35.83672143554688,19.39373977978875,35.16042143554687L19.39373977978875,24.229211435546876C19.39294107796875,23.552021435546877,19.75379979296875,22.925945435546875,20.34016779296875,22.587192435546875C20.92653779296875,22.248441735546876,21.64915779296875,22.248572935546875,22.23540779296875,22.587540435546874L31.70413779296875,28.054201435546876C32.29063779296875,28.392341435546875,32.65203779296875,29.017841435546874,32.65203779296875,29.694831435546874C32.65203779296875,30.371821435546877,32.29063779296875,30.997331435546876,31.70413779296875,31.335451435546876L22.23540779296875,36.80212143554687C21.64883779296875,37.140821435546876,20.92614779296875,37.140821435546876,20.33957179296875,36.800021435546874L20.33957179296875,36.800021435546874Z" fill-rule="evenodd" fill="#000000" fill-opacity="1"/></g></g></svg>