<svg xmlns="http://www.w3.org/2000/svg" xmlns:xlink="http://www.w3.org/1999/xlink" fill="none" version="1.1" width="142.03016662597656" height="177.07000732421875" viewBox="0 0 142.03016662597656 177.07000732421875"><g><g></g><g><path d="M112.76016479492188,52.600006103515625C111.76016479492188,51.91000610351563,110.76016479492188,51.24002110351562,109.76016479492188,50.600006103515625C108.06542479492188,53.60238610351563,106.03216479492187,56.400666103515626,103.70016479492188,58.94000610351563C106.88847479492188,57.07800610351563,109.91864479492187,54.957546103515625,112.76016479492188,52.600006103515625Z" fill="#000000" fill-opacity="1"/></g><g><path d="M83.57020244140625,77.20999389648438C86.47480244140625,77.41879389648437,89.34830244140625,77.94179389648437,92.14010244140624,78.76999389648438Q95.45010244140624,76.95999389648438,96.14010244140624,77.89999389648438C96.88520244140625,79.27199389648437,96.88520244140625,80.92799389648437,96.14010244140624,82.29999389648438C96.44950244140625,83.89429389648437,95.73580244140625,85.51299389648437,94.35020244140625,86.35999389648438C94.35020244140625,86.08999389648437,94.35020244140625,84.12999389648438,90.96020244140625,85.04999389648438C87.57020244140625,85.96999389648437,86.22020244140626,87.51999389648438,83.59020244140625,86.77999389648437C84.71210244140624,87.84809389648437,86.35680244140624,88.15739389648436,87.79020244140625,87.56999389648438C90.25020244140624,86.56999389648438,93.09020244140625,84.94999389648437,94.27020244140625,86.37999389648438C95.13020244140625,90.10999389648438,91.42010244140624,91.84999389648438,78.14015244140626,94.88999389648438C70.14015244140624,96.74999389648437,68.32014444140626,106.38999389648438,68.59014894140626,111.53999389648438C69.25015244140624,127.68999389648438,81.82010244140625,129.86999389648437,98.05020244140624,131.14999389648438C112.78010244140626,132.30999389648437,123.88020244140625,139.67999389648438,126.50020244140626,152.14999389648438C150.25440244140626,123.04189389648438,146.17040244140625,80.24059389648437,117.34010244140626,56.149993896484375C105.12610244140626,66.65939389648437,89.74560244140625,72.77769389648438,73.65016244140625,73.52999389648437C76.75754244140624,75.23849389648437,80.10030244140626,76.47859389648437,83.57020244140625,77.20999389648438Z" fill="#000000" fill-opacity="1"/></g><g><path d="M40.61016738891602,60.53000366210937C38.36527738891601,58.374323662109376,36.354137388916016,55.987793662109375,34.61016738891602,53.410003662109375C33.730167388916016,54.05001866210937,32.84016838891601,54.72000366210938,31.980167388916016,55.410003662109375C34.75800738891601,57.39868366210938,37.68690738891601,59.167393662109376,40.740167388916014,60.70001366210938L40.61016738891602,60.53000366210937Z" fill="#000000" fill-opacity="1"/></g><g><path d="M62.51016799926758,67.29996635742188C65.16246799926758,67.62636635742187,67.83406799926757,67.78996635742187,70.51016799926758,67.78996635742187L71.71016799926758,67.78996635742187C75.16836799926759,67.73796635742187,78.61646799926757,67.40346635742188,82.02016799926758,66.78996635742187C92.03606799926757,63.938966357421876,100.51246799926759,57.231966357421875,105.59016799926758,48.139986357421876C84.40326799926757,37.004976357421874,58.89966799926758,37.945186357421875,38.59016799926758,50.609966357421875C40.14306799926758,52.899366357421876,41.91835799926758,55.029666357421874,43.890167999267575,56.969966357421875C49.02446799926758,62.056466357421876,55.465067999267575,65.62456635742188,62.500167999267575,67.27996635742187L62.51016799926758,67.29996635742188Z" fill="#000000" fill-opacity="1"/></g><g><path d="M51.190187530517576,84.15999877929687Q55.190187530517576,79.95999877929688,58.36018753051758,81.85999877929687C57.56478753051758,80.61899877929687,56.01518753051758,80.09559877929688,54.63018753051758,80.59999877929687C51.39858753051758,82.17259877929688,47.91548753051758,83.16439877929687,44.340187530517575,83.52999877929688C39.11018753051758,83.52999877929688,28.34018753051758,76.77999877929688,29.00018753051758,75.09999877929687C29.25018753051758,74.42999877929688,32.00018753051758,73.51999877929687,34.740187530517574,72.81999877929687Q42.520187530517575,70.81999877929687,56.22018753051758,75.28999877929688C57.14068753051758,74.35219877929687,58.17158753051758,73.52949877929687,59.29018753051758,72.83999877929688C59.49308753051758,72.82179877929687,59.69728753051758,72.82179877929687,59.90018753051758,72.83999877929688C48.23008753051758,71.10569877929687,37.16348753051758,66.53545877929687,27.670187530517577,59.529998779296875C-7.432312469482422,93.24699877929687,2.849537530517578,151.7914987792969,47.340187530517575,171.52999877929688C25.110187530517578,144.60999877929686,42.72018753051758,93.16999877929688,51.190187530517576,84.15999877929687Z" fill="#000000" fill-opacity="1"/></g><g><path d="M31.870171129150393,29.260039697265626C31.750161129150392,23.776339697265627,32.77179112915039,18.327699697265626,34.87017112915039,13.260009697265625C35.08245112915039,12.123229697265625,34.48089112915039,10.990630697265624,33.42017112915039,10.529998697265626C32.334181129150394,10.063903697265625,31.07026112915039,10.443054697265625,30.42017112915039,11.429989697265626C24.70935112915039,25.245539697265627,26.26598012915039,40.999339697265626,34.57017112915039,53.43003969726563C35.87017112915039,52.49003969726562,37.17015112915039,51.60003969726562,38.57015112915039,50.75993969726562C34.32031112915039,44.38453969726562,31.99446112915039,36.92103969726563,31.870171129150393,29.260039697265626Z" fill="#000000" fill-opacity="1"/></g><g><path d="M115.02016014648437,34.85000318359375C115.40468014648438,33.89535318359375,115.16226014648437,32.80252318359375,114.41016014648437,32.10000618359375C113.66038014648437,31.40109248359375,112.55376014648438,31.24530018359375,111.64015014648437,31.70999118359375C110.72142014648438,32.17776518359375,110.18791014648437,33.16516318359375,110.30016014648437,34.19000318359375C109.60884014648437,39.11184318359375,108.00108014648437,43.86046318359375,105.56015014648438,48.18996318359375C106.99210014648438,48.92876318359375,108.37796014648437,49.75366318359375,109.71014014648438,50.659963183593746C112.43385014648437,45.77146318359375,114.23068014648437,40.421603183593746,115.01015014648438,34.88000318359375L115.02016014648437,34.85000318359375Z" fill="#000000" fill-opacity="1"/></g><g><path d="M131.42016235351562,40.209990029296875C131.97396235351562,39.34711002929687,132.03106235351564,38.25589002929688,131.57016235351563,37.340000029296874C131.1116623535156,36.42642202929687,130.19906235351561,35.82830812929687,129.1784623535156,35.77255248929688C128.1578623535156,35.716796829296875,127.18546235351562,36.211853029296876,126.63016235351563,37.070010029296874C122.84436235351562,42.93784002929687,118.16453235351563,48.177780029296876,112.76016235351562,52.59998002929687C114.38016235351563,53.73998002929687,115.95016235351562,54.91998002929688,117.47017235351562,56.189980029296876C122.87136235351562,51.564080029296875,127.56766235351563,46.17378002929688,131.41016235351563,40.190000029296876L131.42016235351562,40.209990029296875Z" fill="#000000" fill-opacity="1"/></g><g><path d="M5.670165258789062,2.84C5.648515258789063,1.27667,4.3835552587890625,0.0161438,2.8201752587890625,0C1.2365652587890625,0.0488892,-0.0169220412109375,1.35571,0.0001716617890625,2.94C0.4201702587890625,26.63,10.000215258789062,46.3,27.640215258789063,59.36C29.002315258789064,57.9793,30.462815258789064,56.6993,32.01021525878906,55.53C15.200215258789063,43.48,6.060165258789063,25.13,5.670165258789062,2.84Z" fill="#000000" fill-opacity="1"/></g></g></svg>