<svg width="500" height="500" viewBox="0 0 500 500" fill="none" xmlns="http://www.w3.org/2000/svg">
<path fill-rule="evenodd" clip-rule="evenodd" d="M20.0962 75C0 109.808 0 156.538 0 250C0 343.462 0 390.192 20.0962 425C33.2614 447.803 52.1971 466.739 75 479.904C109.808 500 156.538 500 250 500C343.462 500 390.192 500 425 479.904C447.803 466.739 466.739 447.803 479.904 425C500 390.192 500 343.462 500 250C500 232.476 500 216.595 499.868 202.127C499.887 204.256 499.904 206.415 499.918 208.606L291.394 0.0821763C278.696 -1.98835e-09 264.945 0 250 0C156.538 0 109.808 0 75 20.0962C52.1971 33.2614 33.2614 52.1971 20.0962 75Z" fill="#B7F397"/>
<path fill-rule="evenodd" clip-rule="evenodd" d="M291.394 0.0824934L499.918 208.606C433.21 208.175 395.553 205.475 366.312 188.592C343.509 175.427 324.573 156.491 311.408 133.689C294.525 104.447 291.826 66.7908 291.394 0.0824934Z" fill="#386A20" fill-opacity="0.5"/>
<path d="M444.15 233.616L448.374 250.512C445.387 250.512 442.187 251.11 438.774 252.304C435.36 253.414 432.203 255.163 429.302 257.552V295.696H408.182V233.744H418.806L424.438 241.04C426.998 239.163 430.07 237.456 433.654 235.92C437.238 234.384 440.736 233.616 444.15 233.616Z" fill="#386A20"/>
<path d="M367.119 231.568C377.018 231.568 384.356 234.811 389.135 241.296C393.999 247.696 396.431 255.248 396.431 263.952V270.992H357.263C358.116 273.979 359.738 276.24 362.127 277.776C364.602 279.227 367.631 279.952 371.215 279.952C373.946 279.952 376.634 279.696 379.279 279.184C381.924 278.587 384.57 277.648 387.215 276.368L393.103 290.832C389.775 293.307 385.636 294.971 380.687 295.824C375.823 296.678 372.111 297.104 369.551 297.104C359.226 297.104 350.778 294.416 344.207 289.04C337.722 283.664 334.479 275.558 334.479 264.72C334.479 254.48 337.551 246.416 343.695 240.528C349.924 234.555 357.732 231.568 367.119 231.568ZM366.607 248.72C364.047 248.72 361.914 249.531 360.207 251.152C358.586 252.774 357.476 255.035 356.879 257.936H376.335C375.994 255.547 375.055 253.414 373.519 251.536C371.983 249.659 369.679 248.72 366.607 248.72Z" fill="#386A20"/>
<path d="M288.433 205.328V253.072C292.444 249.573 296.497 246.075 300.593 242.576C304.689 238.992 308.742 235.408 312.753 231.824C314.801 234.299 316.849 236.773 318.897 239.248C321.03 241.637 323.078 244.027 325.041 246.416L307.889 260.112L329.905 295.696H306.865L293.169 271.76C292.401 272.357 291.59 272.997 290.737 273.68C289.969 274.363 289.201 275.003 288.433 275.6V295.696H267.441V206.736L288.433 205.328Z" fill="#386A20"/>
<path d="M252.576 213.648C252.576 216.805 251.424 219.493 249.12 221.712C246.816 223.931 244.085 225.04 240.928 225.04C237.771 225.04 235.083 223.931 232.864 221.712C230.645 219.493 229.536 216.805 229.536 213.648C229.536 210.491 230.645 207.76 232.864 205.456C235.083 203.152 237.771 202 240.928 202C244.085 202 246.816 203.152 249.12 205.456C251.424 207.76 252.576 210.491 252.576 213.648ZM251.552 233.616V295.696H230.432V233.616H251.552Z" fill="#386A20"/>
<path d="M217.525 233.616L221.749 250.512C218.762 250.512 215.562 251.11 212.149 252.304C208.735 253.414 205.578 255.163 202.677 257.552V295.696H181.557V233.744H192.181L197.813 241.04C200.373 239.163 203.445 237.456 207.029 235.92C210.613 234.384 214.111 233.616 217.525 233.616Z" fill="#386A20"/>
<path d="M157.033 297.488C149.268 297.488 142.569 295.483 136.937 291.472C131.391 287.461 128.617 281.488 128.617 273.552V251.792H119.529V235.408H128.617V219.28L149.609 216.208V235.408H163.305L166.505 251.792H149.609V270.864C149.609 273.68 150.335 275.941 151.785 277.648C153.321 279.355 155.54 280.208 158.441 280.208C159.551 280.208 160.831 280.037 162.281 279.696C163.817 279.269 165.268 278.715 166.633 278.032L172.649 292.496C171.199 293.861 168.895 295.013 165.737 295.952C162.58 296.976 159.679 297.488 157.033 297.488Z" fill="#386A20"/>
<path d="M52 231.312C52 224.4 54.816 218.598 60.448 213.904C66.08 209.211 73.8027 206.864 83.616 206.864C87.968 206.864 92.4053 207.504 96.928 208.784C101.451 210.064 105.419 211.728 108.832 213.776L102.432 228.752C98.5067 227.302 95.2213 226.235 92.576 225.552C89.9307 224.784 87.0293 224.4 83.872 224.4C80.8 224.4 78.3253 225.04 76.448 226.32C74.656 227.6 73.76 229.307 73.76 231.44C73.76 233.83 75.168 235.835 77.984 237.456C80.8 239.078 84.1707 240.912 88.096 242.96C94.24 246.118 100.128 250 105.76 254.608C111.392 259.216 114.208 265.104 114.208 272.272C114.208 279.44 111.221 285.414 105.248 290.192C99.36 294.971 91.0827 297.36 80.416 297.36C76.2347 297.36 71.2853 296.635 65.568 295.184C59.936 293.734 55.6693 292.07 52.768 290.192L59.168 274.064C61.5573 275.43 64.7573 276.752 68.768 278.032C72.864 279.227 76.576 279.824 79.904 279.824C84.0853 279.824 87.2427 279.056 89.376 277.52C91.5093 275.984 92.576 274.15 92.576 272.016C92.576 270.054 91.04 268.134 87.968 266.256C84.9813 264.294 81.696 262.416 78.112 260.624C72.224 257.552 66.3787 253.798 60.576 249.36C54.8587 244.838 52 238.822 52 231.312Z" fill="#386A20"/>
</svg>
