<svg xmlns="http://www.w3.org/2000/svg" xmlns:xlink="http://www.w3.org/1999/xlink" fill="none" version="1.1" width="1234" height="361" viewBox="0 0 1234 361"><g><path d="M0,54Q1.32563,54,2.64965,53.935Q3.97368,53.8699,5.29293,53.74Q6.61217,53.61,7.92345,53.4155Q9.23472,53.221,10.5349,52.9624Q11.835,52.7038,13.1209,52.3817Q14.4068,52.0596,15.6754,51.6748Q16.9439,51.29,18.192,50.8434Q19.4402,50.3968,20.6649,49.8895Q21.8896,49.3822,23.088,48.8154Q24.2863,48.2486,25.4554,47.6237Q26.6245,46.9988,27.7615,46.3173Q28.8986,45.6358,30.0008,44.8993Q31.103,44.1629,32.1678,43.3732Q33.2325,42.5835,34.2572,41.7426Q35.282,40.9016,36.2642,40.0114Q37.2464,39.1211,38.1838,38.1838Q39.1211,37.2464,40.0114,36.2642Q40.9016,35.282,41.7426,34.2572Q42.5835,33.2325,43.3732,32.1678Q44.1629,31.103,44.8993,30.0008Q45.6358,28.8986,46.3173,27.7615Q46.9988,26.6245,47.6237,25.4554Q48.2486,24.2863,48.8154,23.088Q49.3822,21.8896,49.8895,20.6649Q50.3968,19.4402,50.8434,18.192Q51.29,16.9439,51.6748,15.6754Q52.0596,14.4068,52.3817,13.1209Q52.7038,11.835,52.9624,10.5349Q53.221,9.23472,53.4155,7.92345Q53.61,6.61217,53.74,5.29293Q53.8699,3.97368,53.935,2.64965Q54,1.32563,54,0L1180,0Q1180,2.42859,1180.22,4.84738Q1180.44,7.26617,1180.87,9.65562Q1181.3,12.0451,1181.95,14.3859Q1182.6,16.7267,1183.45,19Q1183.96,20.3457,1184.54,21.6626Q1185.11,22.9794,1185.76,24.2637Q1186.4,25.548,1187.12,26.7961Q1187.83,28.0443,1188.61,29.2526Q1189.39,30.461,1190.23,31.6263Q1191.07,32.7915,1191.98,33.9103Q1192.88,35.0291,1193.84,36.0983Q1194.8,37.1675,1195.82,38.184Q1196.83,39.2005,1197.9,40.1615Q1198.97,41.1225,1200.09,42.0253Q1201.21,42.9281,1202.37,43.77Q1203.54,44.6119,1204.75,45.3907Q1205.96,46.1695,1207.2,46.8828Q1208.45,47.5962,1209.74,48.2421Q1211.02,48.888,1212.34,49.4647Q1213.65,50.0414,1215,50.5472Q1217.27,51.4017,1219.61,52.0486Q1221.96,52.6956,1224.34,53.1298Q1226.73,53.564,1229.15,53.782Q1231.57,54,1234,54L1234,307Q1231.57,307,1229.15,307.218Q1226.73,307.436,1224.34,307.87Q1221.96,308.305,1219.61,308.951Q1217.27,309.598,1215,310.453Q1213.65,310.959,1212.34,311.536Q1211.02,312.112,1209.74,312.758Q1208.45,313.404,1207.2,314.117Q1205.96,314.831,1204.75,315.61Q1203.54,316.388,1202.37,317.23Q1201.21,318.072,1200.09,318.975Q1198.97,319.878,1197.9,320.839Q1196.83,321.8,1195.82,322.816Q1194.8,323.833,1193.84,324.902Q1192.88,325.971,1191.98,327.09Q1191.07,328.209,1190.23,329.374Q1189.39,330.539,1188.61,331.748Q1187.83,332.956,1187.12,334.204Q1186.4,335.452,1185.76,336.736Q1185.11,338.021,1184.54,339.337Q1183.96,340.654,1183.45,342Q1182.6,344.273,1181.95,346.614Q1181.3,348.955,1180.87,351.344Q1180.44,353.734,1180.22,356.153Q1180,358.571,1180,361L54,361Q54,358.571,53.782,356.153Q53.564,353.734,53.1297,351.344Q52.6955,348.955,52.0485,346.614Q51.4015,344.273,50.547,342Q50.0412,340.654,49.4645,339.337Q48.8878,338.021,48.2419,336.736Q47.5959,335.452,46.8826,334.204Q46.1692,332.956,45.3904,331.748Q44.6117,330.539,43.7697,329.374Q42.9278,328.209,42.025,327.09Q41.1223,325.971,40.1613,324.902Q39.2003,323.833,38.1838,322.816Q37.1672,321.8,36.0981,320.839Q35.0289,319.878,33.9101,318.975Q32.7913,318.072,31.6261,317.23Q30.4609,316.388,29.2525,315.61Q28.0441,314.831,26.796,314.117Q25.5479,313.404,24.2636,312.758Q22.9793,312.112,21.6625,311.536Q20.3457,310.959,19,310.453Q16.7267,309.598,14.3859,308.951Q12.0451,308.305,9.65561,307.87Q7.26616,307.436,4.84737,307.218Q2.42859,307,0,307L0,54ZM1163.52,342C1170.28,316.894,1189.89,297.284,1215,290.516L1215,70.484C1189.89,63.7164,1170.28,44.1057,1163.52,19L70.484,19C63.7164,44.1057,44.1057,63.7164,19,70.484L19,290.516C44.1057,297.284,63.7164,316.894,70.484,342L1163.52,342Z" fill-rule="evenodd" fill="#000000" fill-opacity="1"/></g></svg>