<svg xmlns="http://www.w3.org/2000/svg" xmlns:xlink="http://www.w3.org/1999/xlink" fill="none" version="1.1" width="300" height="380" viewBox="0 0 300 380"><g><g><path d="M289.563,157.1160457763672C303.479,176.7470457763672,303.479,203.25304577636717,289.563,222.88404577636717L194.69,356.7190457763672C172.686,387.7600457763672,127.314,387.7600457763672,105.31,356.7190457763672L10.4366,222.88404577636717C-3.47887,203.25304577636717,-3.47887,176.7470457763672,10.4366,157.1160457763672L105.31,23.280645776367187C127.314,-7.760144223632812,172.686,-7.760144223632812,194.69,23.280645776367187L289.563,157.1160457763672Z" fill="#D3D3D3" fill-opacity="1"/></g><g><path d="M289.563,157.1160457763672C303.479,176.7470457763672,303.479,203.25304577636717,289.563,222.88404577636717L194.69,356.7190457763672C184.326,371.34004577636716,167.701,380.0000457763672,150,380.0000457763672C132.299,380.0000457763672,115.674,371.34004577636716,105.31,356.7190457763672L10.4366,222.88404577636717C-3.47887,203.25304577636717,-3.47887,176.7470457763672,10.4366,157.1160457763672L105.31,23.280645776367187C115.674,8.660395776367187,132.299,0.0000457763671875,150,0.0000457763671875C167.701,0.0000433417171875,184.326,8.660385776367187,194.69,23.280645776367187L289.563,157.1160457763672ZM263.156,176.5480457763672L168.282,42.711845776367184Q165.297,38.50044577636719,160.824,36.00714577636719Q155.766,33.18794577636719,150,33.18794577636719Q144.235,33.18794577636719,139.176,36.00714577636719Q134.703,38.50044577636719,131.718,42.711845776367184L36.8443,176.5480457763672Q32.5748,182.57104577636719,32.5748,190.0000457763672Q32.5748,197.4290457763672,36.8443,203.45204577636719L131.718,337.2880457763672Q134.703,341.5000457763672,139.176,343.9930457763672Q144.235,346.8120457763672,150,346.8120457763672Q155.765,346.8120457763672,160.824,343.9930457763672Q165.297,341.5000457763672,168.282,337.2880457763672L263.156,203.45204577636719Q267.425,197.4290457763672,267.425,190.0000457763672Q267.425,182.57104577636719,263.156,176.5480457763672Z" fill-rule="evenodd" fill="#A1A1A1" fill-opacity="1"/></g><g style="opacity:0.30000001192092896;mix-blend-mode:hard-light"><path d="M299.93333322143553,187.224C299.4193332214355,176.625,295.9633332214355,166.144,289.5633332214355,157.116L194.69033322143554,23.2806C194.67433322143555,23.2582,194.65833322143556,23.2358,194.64233322143554,23.2134C183.66433322143553,7.77263,166.89533322143555,0.0348634,150.11373322143555,0.000118729Q150.05693322143554,8.47467e-9,150.00023322143556,0C149.96233322143553,0,149.92453322143555,0.0000396032,149.88663322143555,0.000118783C133.10843322143555,0.0348535,116.34323322143555,7.76938,105.36483322143555,23.2037C105.34663322143555,23.2293,105.32843322143555,23.2549,105.31023322143554,23.2806L60.81726024103555,86.0458L299.93333322143553,187.224Z" fill-rule="evenodd" fill="#E2E2E2" fill-opacity="1" style="mix-blend-mode:hard-light"/></g></g></svg>