<?xml version="1.0" encoding="UTF-8" standalone="no"?>
<!DOCTYPE svg PUBLIC "-//W3C//DTD SVG 1.1//EN" "http://www.w3.org/Graphics/SVG/1.1/DTD/svg11.dtd">
<svg width="100%" height="100%" viewBox="0 0 24 24" version="1.1" xmlns="http://www.w3.org/2000/svg" xmlns:xlink="http://www.w3.org/1999/xlink" xml:space="preserve" xmlns:serif="http://www.serif.com/" style="fill-rule:evenodd;clip-rule:evenodd;stroke-linejoin:round;stroke-miterlimit:2;">
    <g transform="matrix(0.8,0,0,0.8,2.4,2.4)">
        <path d="M24,0C20,-4 4,-4 0,0C-4,4 -4,20 0,24C4,28 20,28 24,24C28,20 28,4 24,0Z" style="fill:rgb(237,74,62);"/>
    </g>
    <path d="M2.537,21.73C3.173,22.302 4.124,22.766 5.271,23.121L9.103,8.817C9.746,6.418 12.216,4.992 14.615,5.635C17.014,6.278 18.44,8.747 17.797,11.146C17.154,13.545 14.684,14.971 12.285,14.328L10.837,13.94L10.06,16.838L11.509,17.226C15.507,18.297 19.623,15.921 20.695,11.923C21.766,7.924 19.39,3.808 15.391,2.737C11.393,1.666 7.277,4.042 6.206,8.04L2.537,21.73Z" style="fill:white;"/>
</svg>
